<svg width="32" height="33" viewBox="0 0 32 33" fill="none" xmlns="http://www.w3.org/2000/svg">
<path d="M28 0.169678C29.0833 0.169678 30.0208 0.565511 30.8125 1.35718C31.6042 2.14884 32 3.08634 32 4.16968V22.1697C32 23.253 31.6042 24.1905 30.8125 24.9822C30.0208 25.7738 29.0833 26.1697 28 26.1697H19L11.1875 32.0447C11.0625 32.128 10.9167 32.1697 10.75 32.1697C10.25 32.1697 10 31.9197 10 31.4197V26.1697H4C2.91667 26.1697 1.97917 25.7738 1.1875 24.9822C0.395833 24.1905 0 23.253 0 22.1697V4.16968C0 3.08634 0.395833 2.14884 1.1875 1.35718C1.97917 0.565511 2.91667 0.169678 4 0.169678H28ZM29 22.1697V4.16968C29 3.87801 28.8958 3.64884 28.6875 3.48218C28.5208 3.27384 28.2917 3.16968 28 3.16968H4C3.70833 3.16968 3.45833 3.27384 3.25 3.48218C3.08333 3.64884 3 3.87801 3 4.16968V22.1697C3 22.4613 3.08333 22.7113 3.25 22.9197C3.45833 23.0863 3.70833 23.1697 4 23.1697H13V26.9197L17.1875 23.7947L18 23.1697H28C28.2917 23.1697 28.5208 23.0863 28.6875 22.9197C28.8958 22.7113 29 22.4613 29 22.1697Z" fill="#36485C"/>
</svg>
