<svg width="64" height="64" viewBox="0 0 64 64" fill="none" xmlns="http://www.w3.org/2000/svg">
<rect width="64" height="64" rx="32" fill="white"/>
<rect x="18.375" y="18.4731" width="27.4574" height="28.0631" rx="0.426819" fill="white"/>
<path d="M14.2324 48.8353V36.1836C14.2324 35.8764 14.5471 35.6698 14.8289 35.7919L32.2291 43.332C32.3397 43.3799 32.4654 43.3789 32.5751 43.3291L49.1624 35.8069C49.445 35.6788 49.7655 35.8854 49.7655 36.1957V48.8353C49.7655 49.0711 49.5744 49.2622 49.3387 49.2622H14.6592C14.4235 49.2622 14.2324 49.0711 14.2324 48.8353Z" fill="#B9D9A5"/>
<path d="M18.3203 33.2404V19.5638C18.3203 19.2615 18.4404 18.9716 18.6541 18.7579C18.8679 18.5441 19.1578 18.4241 19.46 18.4241H44.5338C44.8361 18.4241 45.126 18.5441 45.3397 18.7579C45.5534 18.9716 45.6735 19.2615 45.6735 19.5638V33.2404" stroke="#36485C" stroke-width="1.28046" stroke-linecap="round" stroke-linejoin="round"/>
<path d="M14.332 35.52L30.5089 43.347C30.9731 43.5715 31.482 43.6882 31.9976 43.6882C32.5133 43.6882 33.0222 43.5715 33.4864 43.347L49.6633 35.52" stroke="#36485C" stroke-width="1.28046" stroke-linecap="round" stroke-linejoin="round"/>
<path d="M18.321 22.2706L14.3548 24.6925H14.332V47.4869C14.332 48.0914 14.5722 48.6712 14.9997 49.0987C15.4271 49.5262 16.0069 49.7663 16.6115 49.7663H47.3838C47.9884 49.7663 48.5682 49.5262 48.9956 49.0987C49.4231 48.6712 49.6633 48.0914 49.6633 47.4869V24.6925H49.6405L45.6743 22.2706" stroke="#36485C" stroke-width="1.28046" stroke-linecap="round" stroke-linejoin="round"/>
<path d="M24.5176 18.4245L30.2162 14.9384C30.7535 14.6095 31.3712 14.4354 32.0012 14.4354C32.6312 14.4354 33.249 14.6095 33.7863 14.9384L39.4849 18.4245" stroke="#36485C" stroke-width="1.28046" stroke-linecap="round" stroke-linejoin="round"/>
<path d="M25.1602 24.1232H31.9985" stroke="#36485C" stroke-width="1.28046" stroke-linecap="round" stroke-linejoin="round"/>
<path d="M25.1602 28.6818H38.8368" stroke="#36485C" stroke-width="1.28046" stroke-linecap="round" stroke-linejoin="round"/>
<path d="M25.1602 33.2404H38.8368" stroke="#36485C" stroke-width="1.28046" stroke-linecap="round" stroke-linejoin="round"/>
</svg>
