<svg width="197" height="34" viewBox="0 0 197 34" fill="none" xmlns="http://www.w3.org/2000/svg">
<g clip-path="url(#clip0)">
<path d="M30.5143 0.517529C30.2296 0.230882 29.8506 0.0581981 29.4482 0.0318152C23.2124 -0.352312 19.1786 2.80959 17.0368 5.7842C14.8918 2.80959 10.858 -0.355486 4.62225 0.0318152C4.21877 0.0577286 3.83856 0.230426 3.55291 0.517529C-0.45239 4.53658 2.51164e-05 10.8699 0.0411538 11.489C0.290116 14.0136 1.08243 16.454 2.36334 18.6413C4.31537 22.0731 8.34282 26.635 16.4705 28.9239L16.6002 28.962L16.6919 28.9842L16.8185 29.0064C16.8911 29.0127 16.9642 29.0127 17.0368 29.0064C17.1062 29.0127 17.1761 29.0127 17.2456 29.0064L17.3595 28.9874L17.4639 28.962L17.6063 28.9207C32.6277 24.6794 33.9312 12.6509 34.0198 11.5239C34.0609 11.1556 34.6114 4.62864 30.5143 0.517529ZM15.3853 14.5144L10.9244 9.68896C10.7778 9.52486 10.6002 9.39169 10.4018 9.2972C10.2033 9.20271 9.98818 9.14881 9.7688 9.13862C9.54941 9.12844 9.3302 9.16218 9.12395 9.23788C8.91769 9.31358 8.72852 9.42972 8.56746 9.57954C8.40639 9.72935 8.27666 9.90984 8.18583 10.1105C8.095 10.3111 8.04489 10.5279 8.03841 10.7482C8.03193 10.9685 8.06921 11.1878 8.14809 11.3935C8.22697 11.5992 8.34587 11.787 8.49784 11.9461L15.3727 19.381V25.0794C3.98318 20.9207 3.36625 11.6953 3.35043 11.289C3.34886 11.2593 3.34886 11.2297 3.35043 11.2001C3.35043 11.1493 2.917 6.40007 5.48596 3.31753H5.68527C7.72874 3.28418 9.73682 3.85484 11.4594 4.95843C13.182 6.06202 14.5429 7.64976 15.3727 9.52388V9.55245L15.3853 14.5144ZM30.7295 11.2064C30.7279 11.2339 30.7279 11.2615 30.7295 11.289C30.7073 11.7017 30.0967 20.9239 18.7072 25.0826H18.6914V19.3969L18.7072 19.381L25.5726 11.9461C25.8709 11.6228 26.0289 11.1938 26.012 10.7536C25.9951 10.3133 25.8046 9.8978 25.4824 9.59848C25.1602 9.29917 24.7327 9.14054 24.2939 9.15751C23.8552 9.17448 23.4411 9.36565 23.1428 9.68896L18.6977 14.4985H18.6819V9.5588L18.6977 9.52388C19.2482 8.29213 21.8836 3.3207 28.401 3.3207H28.5908C31.1408 6.38737 30.7326 11.1588 30.7295 11.2064Z" fill="#88B04B"/>
<path d="M61.5254 1.3589C61.6533 1.35814 61.7801 1.38334 61.898 1.43299C62.016 1.48263 62.1228 1.5557 62.2119 1.64779C62.3037 1.73722 62.3765 1.84435 62.426 1.96273C62.4754 2.08111 62.5006 2.20831 62.4998 2.33668V4.91446C62.4973 5.17301 62.3939 5.42027 62.2117 5.60311C62.0295 5.78594 61.783 5.88975 61.5254 5.89224H49.9872V13.2922H60.7945C60.9242 13.2927 61.0524 13.3187 61.172 13.3688C61.2916 13.419 61.4002 13.4923 61.4916 13.5846C61.583 13.6769 61.6553 13.7863 61.7045 13.9066C61.7538 14.0269 61.7789 14.1558 61.7785 14.2859V16.8605C61.7744 17.1194 61.6701 17.3665 61.4876 17.5496C61.3052 17.7327 61.0589 17.8373 60.8009 17.8414H49.9872V26.1303C49.9847 26.3889 49.8813 26.6361 49.6991 26.819C49.5169 27.0018 49.2704 27.1056 49.0128 27.1081H46.0863C45.8283 27.1056 45.5816 27.0019 45.3989 26.8192C45.2162 26.6364 45.112 26.3892 45.1087 26.1303V2.33668C45.1084 2.20808 45.134 2.08075 45.184 1.96235C45.234 1.84396 45.3074 1.73695 45.3998 1.64779C45.4889 1.5557 45.5957 1.48263 45.7136 1.43299C45.8316 1.38334 45.9584 1.35814 46.0863 1.3589H61.5254Z" fill="white"/>
<path d="M65.8438 9.22875C65.8471 8.97021 65.9514 8.72328 66.1342 8.54104C66.317 8.3588 66.5638 8.25579 66.8214 8.25415H69.5676C69.8263 8.25413 70.0747 8.3564 70.2589 8.53882C70.443 8.72124 70.5482 8.96911 70.5515 9.22875V18.4351C70.5515 19.8848 70.8594 21.0489 71.4753 21.9272C72.0912 22.8055 73.0972 23.2404 74.4935 23.2319C75.759 23.2319 76.7345 22.797 77.42 21.9272C78.1054 21.0573 78.4429 19.8933 78.4324 18.4351V9.22875C78.4357 8.97021 78.5399 8.72328 78.7227 8.54104C78.9055 8.3588 79.1523 8.25579 79.41 8.25415H82.1593C82.4169 8.25663 82.6633 8.36045 82.8455 8.54328C83.0278 8.72611 83.1312 8.97337 83.1337 9.23193V26.1303C83.1312 26.3889 83.0278 26.6362 82.8455 26.819C82.6633 27.0018 82.4169 27.1056 82.1593 27.1081H79.41C79.1523 27.1056 78.9059 27.0018 78.7237 26.819C78.5415 26.6362 78.438 26.3889 78.4355 26.1303V25.2954C77.8243 25.8933 77.1307 26.4001 76.3759 26.8002C75.4561 27.273 74.4319 27.5045 73.3988 27.4732C72.1459 27.5158 70.899 27.2794 69.7479 26.7811C68.8368 26.3663 68.0422 25.7316 67.4352 24.9335C66.8409 24.1259 66.4217 23.2024 66.2045 22.2224C65.96 21.1574 65.8389 20.0677 65.8438 18.9748V9.22875Z" fill="white"/>
<path d="M91.7486 26.1303C91.7461 26.3889 91.6427 26.6361 91.4605 26.819C91.2783 27.0018 91.0318 27.1056 90.7742 27.1081H88.0249C87.7672 27.1056 87.5208 27.0018 87.3386 26.819C87.1564 26.6361 87.0529 26.3889 87.0504 26.1303V2.33668C87.0497 2.20831 87.0748 2.08111 87.1243 1.96273C87.1737 1.84435 87.2466 1.73722 87.3383 1.64779C87.4275 1.5557 87.5342 1.48263 87.6522 1.43299C87.7702 1.38334 87.8969 1.35814 88.0249 1.3589H90.7742C90.9021 1.35814 91.0289 1.38334 91.1468 1.43299C91.2648 1.48263 91.3716 1.5557 91.4607 1.64779C91.5525 1.73722 91.6253 1.84435 91.6748 1.96273C91.7242 2.08111 91.7494 2.20831 91.7486 2.33668V26.1303Z" fill="white"/>
<path d="M100.458 26.1303C100.455 26.3892 100.351 26.6364 100.168 26.8192C99.9855 27.0019 99.7388 27.1056 99.4808 27.1081H96.7347C96.4767 27.1056 96.23 27.0019 96.0472 26.8192C95.8645 26.6364 95.7604 26.3892 95.7571 26.1303V2.33668C95.7567 2.20808 95.7823 2.08075 95.8324 1.96235C95.8824 1.84396 95.9558 1.73695 96.0481 1.64779C96.1373 1.5557 96.244 1.48263 96.362 1.43299C96.48 1.38334 96.6068 1.35814 96.7347 1.3589H99.4808C99.6087 1.35814 99.7355 1.38334 99.8535 1.43299C99.9715 1.48263 100.078 1.5557 100.167 1.64779C100.26 1.73695 100.333 1.84396 100.383 1.96235C100.433 2.08075 100.459 2.20808 100.458 2.33668V26.1303Z" fill="white"/>
<path d="M126.101 16.4097C126.003 17.2535 126.003 18.1056 126.101 18.9494C126.152 19.61 126.324 20.2555 126.607 20.8541C126.844 21.3492 127.182 21.7884 127.6 22.143C127.991 22.4655 128.438 22.7111 128.919 22.8668C129.398 23.0248 129.899 23.1052 130.403 23.1049C130.913 23.1131 131.423 23.0641 131.922 22.9589C132.291 22.8771 132.644 22.7367 132.969 22.543C133.244 22.3673 133.493 22.1535 133.709 21.9081C133.927 21.6635 134.127 21.4036 134.307 21.1303C134.46 20.9011 134.628 20.6826 134.81 20.4764C134.895 20.3758 135.001 20.2953 135.12 20.2404C135.239 20.1855 135.369 20.1577 135.5 20.1589H138.256C138.52 20.1592 138.774 20.2641 138.961 20.451C139.057 20.5359 139.132 20.6428 139.179 20.7626C139.226 20.8825 139.243 21.0118 139.23 21.1399C139.169 21.7848 138.986 22.4121 138.689 22.9875C138.301 23.7789 137.764 24.4873 137.107 25.0732C136.306 25.7962 135.381 26.3673 134.377 26.7589C133.11 27.2485 131.76 27.4837 130.403 27.451C129.178 27.4696 127.961 27.2407 126.825 26.778C125.798 26.353 124.86 25.7381 124.06 24.9653C123.281 24.2103 122.654 23.3113 122.215 22.3176C121.768 21.3129 121.493 20.2396 121.402 19.143C121.352 18.6611 121.328 18.1768 121.33 17.6922C121.328 17.1961 121.353 16.7002 121.402 16.2065C121.475 15.1091 121.744 14.0337 122.196 13.0319C122.641 12.0359 123.266 11.1315 124.041 10.3653C124.839 9.5943 125.778 8.98526 126.806 8.57161C127.949 8.11008 129.172 7.8813 130.403 7.89859C131.759 7.86186 133.108 8.09046 134.377 8.57161C135.381 8.96545 136.306 9.53755 137.107 10.2605C137.764 10.8464 138.301 11.5547 138.689 12.3462C138.986 12.9216 139.169 13.5488 139.23 14.1938C139.243 14.3219 139.226 14.4512 139.179 14.571C139.132 14.6909 139.057 14.7978 138.961 14.8827C138.774 15.0696 138.52 15.1745 138.256 15.1748H135.509C135.378 15.1753 135.249 15.1472 135.13 15.0924C135.011 15.0376 134.905 14.9574 134.82 14.8573C134.637 14.6511 134.469 14.4326 134.317 14.2034C134.136 13.9301 133.936 13.6702 133.719 13.4256C133.504 13.1794 133.254 12.9655 132.978 12.7907C132.653 12.5978 132.298 12.4595 131.928 12.3811C131.429 12.2759 130.92 12.227 130.41 12.2351C129.905 12.2349 129.405 12.3153 128.926 12.4732C128.444 12.6289 127.997 12.8745 127.606 13.197C127.189 13.5516 126.85 13.9908 126.613 14.4859C126.326 15.09 126.152 15.7422 126.101 16.4097Z" fill="white"/>
<path d="M150.977 12.6032C149.532 12.6032 148.49 12.9207 147.851 13.5556C147.212 14.1905 146.896 15.236 146.902 16.6921V26.1302C146.899 26.3891 146.795 26.6363 146.612 26.8191C146.429 27.0018 146.183 27.1055 145.925 27.108H143.178C142.921 27.1055 142.674 27.0017 142.492 26.8189C142.31 26.636 142.206 26.3888 142.204 26.1302V9.22863C142.207 8.97226 142.31 8.7272 142.49 8.54531C142.67 8.36342 142.913 8.25896 143.169 8.25403H145.915C146.173 8.2565 146.42 8.36021 146.602 8.54296C146.785 8.7257 146.889 8.97297 146.893 9.23181V10.0636C147.482 9.50712 148.16 9.05327 148.898 8.7207C149.79 8.37582 150.743 8.21703 151.698 8.25403H151.964C152.222 8.25651 152.468 8.36033 152.65 8.54316C152.833 8.72599 152.936 8.97325 152.939 9.23181V11.6255C152.936 11.8843 152.833 12.1319 152.651 12.3153C152.469 12.4986 152.222 12.6031 151.964 12.6064L150.977 12.6032Z" fill="white"/>
<path d="M160.114 1.35868C160.242 1.35792 160.369 1.38312 160.487 1.43277C160.605 1.48241 160.711 1.55548 160.8 1.64757C160.892 1.737 160.965 1.84413 161.015 1.96251C161.064 2.08089 161.089 2.20809 161.088 2.33646V5.16821C161.086 5.42676 160.982 5.67402 160.8 5.85686C160.618 6.03969 160.372 6.1435 160.114 6.14598H157.007C156.749 6.14433 156.502 6.04088 156.319 5.85796C156.136 5.67504 156.032 5.42731 156.03 5.16821V2.33646C156.029 2.20809 156.054 2.08089 156.103 1.96251C156.153 1.84413 156.226 1.737 156.317 1.64757C156.407 1.55509 156.514 1.4818 156.633 1.43214C156.751 1.38248 156.879 1.35749 157.007 1.35868H160.114ZM160.908 26.1206C160.906 26.3791 160.802 26.6264 160.62 26.8092C160.438 26.9921 160.191 27.0959 159.934 27.0984H157.187C156.929 27.0959 156.683 26.9922 156.5 26.8094C156.317 26.6267 156.213 26.3794 156.21 26.1206V9.22852C156.214 8.97023 156.318 8.72378 156.501 8.54171C156.684 8.35964 156.93 8.25637 157.187 8.25392H159.934C160.191 8.2564 160.438 8.36022 160.62 8.54305C160.802 8.72588 160.906 8.97314 160.908 9.2317V26.1206Z" fill="white"/>
<path d="M175.028 27.473C174.353 27.481 173.679 27.4075 173.022 27.254C172.489 27.127 171.971 26.9451 171.475 26.7111C171.07 26.5185 170.688 26.281 170.336 26.0032C170.064 25.7884 169.81 25.5517 169.577 25.2952V33.0159C169.578 33.1448 169.553 33.2726 169.504 33.3915C169.454 33.5105 169.381 33.6181 169.289 33.7079C169.2 33.8 169.093 33.8731 168.975 33.9227C168.857 33.9724 168.73 33.9976 168.602 33.9968H165.853C165.725 33.9976 165.598 33.9724 165.48 33.9227C165.362 33.8731 165.256 33.8 165.166 33.7079C165.074 33.6181 165.001 33.5105 164.952 33.3915C164.902 33.2726 164.877 33.1448 164.879 33.0159V9.22858C164.882 8.97166 164.985 8.72614 165.166 8.54416C165.346 8.36219 165.591 8.25809 165.847 8.25398H168.596C168.854 8.25479 169.102 8.35743 169.285 8.53976C169.469 8.72209 169.573 8.96949 169.577 9.22858V10.0635C169.81 9.80708 170.064 9.57031 170.336 9.35556C170.688 9.07774 171.07 8.84028 171.475 8.64763C171.973 8.41321 172.493 8.23128 173.028 8.10477C173.686 7.95127 174.359 7.87773 175.034 7.88572C176.164 7.87007 177.283 8.11214 178.306 8.59366C179.252 9.04698 180.098 9.68727 180.792 10.4762C181.49 11.2796 182.041 12.2007 182.418 13.1968C182.817 14.2222 183.044 15.3067 183.089 16.4064C183.111 16.7683 183.124 17.1937 183.124 17.6762C183.124 18.1587 183.124 18.5841 183.089 18.946C183.044 20.0457 182.817 21.1302 182.418 22.1556C182.041 23.1517 181.49 24.0728 180.792 24.8762C180.096 25.667 179.248 26.3084 178.299 26.7619C177.277 27.2445 176.158 27.4877 175.028 27.473ZM178.391 18.6952C178.461 18.0198 178.461 17.3389 178.391 16.6635C178.245 15.091 177.763 13.9609 176.945 13.273C176.102 12.575 175.035 12.2073 173.943 12.2381C172.853 12.2062 171.791 12.5818 170.962 13.2921C170.156 13.9905 169.697 14.9968 169.57 16.3016C169.517 16.7588 169.493 17.219 169.498 17.6794C169.495 18.1367 169.522 18.5937 169.577 19.0476C169.64 20.1825 170.139 21.2487 170.969 22.0222C171.788 22.7519 172.854 23.1412 173.949 23.1111C175.042 23.142 176.108 22.7743 176.951 22.0762C177.766 21.3947 178.245 20.2677 178.391 18.6952Z" fill="white"/>
<path d="M186.3 8.16523V2.33666C186.3 2.20806 186.326 2.08073 186.376 1.96233C186.426 1.84393 186.499 1.73693 186.591 1.64777C186.682 1.55372 186.792 1.47951 186.912 1.4298C187.033 1.38009 187.163 1.35595 187.294 1.35888H190.04C190.168 1.35812 190.295 1.38332 190.413 1.43296C190.53 1.48261 190.637 1.55567 190.726 1.64777C190.819 1.73693 190.892 1.84393 190.942 1.96233C190.992 2.08073 191.018 2.20806 191.017 2.33666V8.25412H195.678C195.936 8.25659 196.182 8.3603 196.365 8.54304C196.548 8.72579 196.652 8.97305 196.655 9.2319V11.6255C196.651 11.8844 196.547 12.1316 196.364 12.3147C196.182 12.4977 195.936 12.6024 195.678 12.6065H191.002V20.289C190.967 20.9418 191.179 21.5837 191.596 22.0859C191.995 22.5345 192.733 22.7578 193.811 22.7557H196.026C196.284 22.759 196.53 22.8635 196.712 23.0469C196.894 23.2302 196.998 23.4778 197 23.7367V26.1303C196.998 26.3889 196.894 26.6361 196.712 26.819C196.53 27.0018 196.283 27.1056 196.026 27.1081H193.349C191.084 27.1081 189.343 26.5578 188.126 25.4573C186.909 24.3568 186.3 22.6711 186.3 20.4002V8.16523Z" fill="white"/>
<path d="M114.528 21.7238C114.532 21.6025 114.511 21.4817 114.467 21.3687C114.423 21.2556 114.356 21.1529 114.271 21.0667C114.013 20.8479 113.711 20.6866 113.385 20.5937C112.826 20.4143 112.257 20.2691 111.68 20.1588C110.978 20.0127 110.082 19.818 108.994 19.5746C108.078 19.3838 107.19 19.0788 106.349 18.6667C105.712 18.3538 105.14 17.9229 104.663 17.3969C104.242 16.9199 103.936 16.3517 103.771 15.7365C103.596 15.0781 103.511 14.3989 103.518 13.7175C103.521 12.9728 103.694 12.2387 104.024 11.5715C104.376 10.8494 104.876 10.2101 105.492 9.69526C106.188 9.11815 106.981 8.66893 107.833 8.36828C108.849 8.01092 109.92 7.83785 110.997 7.85717C112.065 7.84338 113.129 7.97799 114.161 8.25717C115.002 8.48588 115.803 8.84238 116.537 9.31431C117.144 9.70557 117.662 10.2204 118.058 10.8254C118.402 11.3417 118.614 11.9347 118.675 12.5524C118.688 12.6811 118.67 12.811 118.622 12.9314C118.575 13.0517 118.5 13.159 118.403 13.2445C118.214 13.4315 117.96 13.5364 117.694 13.5365H114.904C114.617 13.5577 114.331 13.4865 114.088 13.3334C113.907 13.2032 113.708 13.0508 113.49 12.8794C113.227 12.6865 112.937 12.5335 112.629 12.4254C112.1 12.2696 111.548 12.202 110.997 12.2254C110.341 12.2098 109.689 12.3175 109.073 12.5429C108.826 12.6172 108.61 12.772 108.459 12.9828C108.308 13.1937 108.232 13.4487 108.241 13.708C108.233 13.9481 108.303 14.1844 108.441 14.381C108.645 14.6108 108.907 14.7808 109.2 14.873C109.71 15.0561 110.231 15.2077 110.76 15.327C111.424 15.4857 112.291 15.673 113.354 15.8921C115.505 16.3513 117.022 17.073 117.903 18.0572C118.795 19.0612 119.269 20.37 119.229 21.7143C119.225 22.4575 119.038 23.1882 118.685 23.8413C118.294 24.5653 117.755 25.1982 117.103 25.6984C116.343 26.2818 115.486 26.7247 114.572 27.0064C113.474 27.3494 112.33 27.5155 111.18 27.4984C110.034 27.5164 108.891 27.3634 107.789 27.0445C106.903 26.7849 106.065 26.3852 105.305 25.8603C104.678 25.4284 104.147 24.8706 103.746 24.2223C103.407 23.6866 103.208 23.0742 103.167 22.4413C103.153 22.3125 103.171 22.1824 103.218 22.0619C103.266 21.9414 103.341 21.8342 103.439 21.7492C103.626 21.5624 103.88 21.4574 104.144 21.4572H106.935C107.229 21.4342 107.522 21.5263 107.751 21.7143L108.368 22.2953C108.646 22.5457 108.968 22.7426 109.317 22.8762C109.912 23.076 110.538 23.1632 111.164 23.1334C111.541 23.1319 111.917 23.1076 112.291 23.0603C112.654 23.0163 113.012 22.9366 113.36 22.8222C113.657 22.7295 113.934 22.582 114.176 22.3873C114.281 22.3109 114.368 22.2114 114.429 22.0964C114.489 21.9814 114.523 21.854 114.528 21.7238Z" fill="white"/>
</g>
<defs>
<clipPath id="clip0">
<rect width="197" height="34" fill="white"/>
</clipPath>
</defs>
</svg>
