<svg width="64" height="64" viewBox="0 0 64 64" fill="none" xmlns="http://www.w3.org/2000/svg">
<path d="M64 32C64 49.6731 49.6731 64 32 64C14.3269 64 -7.05195e-06 49.6731 -7.05195e-06 32C-7.05195e-06 14.3269 14.3269 3.28408e-06 32 3.28408e-06C49.6731 3.28408e-06 64 14.3269 64 32Z" fill="white"/>
<path d="M33.9219 22.1152V39.9955H43.7761C42.7357 38.8659 40.7173 35.2958 40.967 30.0521C40.7589 27.8078 39.0585 23.0784 33.9219 22.1152Z" fill="#B9D9A5"/>
<path d="M23.0808 30.0232C23.2422 35.2178 21.1921 38.8579 20.1468 40.0285C18.88 40.7153 18.553 41.9797 18.5478 42.526C18.4982 44.8111 20.39 45.5073 21.3421 45.5697H42.9513C44.5813 45.0234 45.342 44.2742 45.3885 42.526C45.4258 41.1274 44.3795 40.2783 43.8517 40.0285C41.2685 37.2314 40.8815 32.1928 41.0108 30.0232C40.7159 27.3436 38.496 21.9752 31.976 21.9377C25.4559 21.9002 23.3292 27.3124 23.0808 30.0232Z" stroke="#36485C" stroke-width="1.28"/>
<line x1="20.5306" y1="39.7584" x2="27.3658" y2="39.7584" stroke="#36485C" stroke-width="1.28" stroke-linecap="round"/>
<line x1="30.5072" y1="39.7584" x2="43.4065" y2="39.7584" stroke="#36485C" stroke-width="1.28" stroke-linecap="round"/>
<mask id="path-6-inside-1_3104_73679" fill="white">
<path d="M36.6495 45.3469C36.6495 45.9617 36.5296 46.5705 36.2965 47.1386C36.0635 47.7066 35.7219 48.2227 35.2913 48.6575C34.8607 49.0922 34.3495 49.4371 33.7869 49.6724C33.2243 49.9077 32.6212 50.0288 32.0123 50.0288C31.4033 50.0288 30.8003 49.9077 30.2377 49.6724C29.675 49.4371 29.1638 49.0922 28.7332 48.6575C28.3026 48.2227 27.961 47.7066 27.728 47.1386C27.4949 46.5705 27.375 45.9617 27.375 45.3469L32.0123 45.3469H36.6495Z"/>
</mask>
<path d="M36.6495 45.3469C36.6495 45.9617 36.5296 46.5705 36.2965 47.1386C36.0635 47.7066 35.7219 48.2227 35.2913 48.6575C34.8607 49.0922 34.3495 49.4371 33.7869 49.6724C33.2243 49.9077 32.6212 50.0288 32.0123 50.0288C31.4033 50.0288 30.8003 49.9077 30.2377 49.6724C29.675 49.4371 29.1638 49.0922 28.7332 48.6575C28.3026 48.2227 27.961 47.7066 27.728 47.1386C27.4949 46.5705 27.375 45.9617 27.375 45.3469L32.0123 45.3469H36.6495Z" fill="#B9D9A5" stroke="#36485C" stroke-width="2.56" mask="url(#path-6-inside-1_3104_73679)"/>
<path d="M29.9502 22.2058C29.7213 21.1493 29.8284 19.0103 32.0883 18.9062C33.0351 18.9767 34.7321 19.7352 33.9455 22.2058" stroke="#36485C" stroke-width="1.28"/>
<path d="M41.0698 15.2938C43.7516 15.8254 49.002 18.5238 48.5492 25.0653" stroke="#36485C" stroke-width="1.28" stroke-linecap="round"/>
<path d="M23.0083 15.2938C20.3265 15.8254 15.0762 18.5238 15.5289 25.0653" stroke="#36485C" stroke-width="1.28" stroke-linecap="round"/>
<path d="M40.3992 18.6726C42.121 19.1469 45.511 21.1815 45.2962 25.5259" stroke="#36485C" stroke-width="1.28" stroke-linecap="round"/>
<path d="M23.6554 18.6726C21.9336 19.1469 18.5437 21.1815 18.7585 25.5259" stroke="#36485C" stroke-width="1.28" stroke-linecap="round"/>
</svg>
