<svg width="73" height="64" viewBox="0 0 73 64" fill="none" xmlns="http://www.w3.org/2000/svg">
<path d="M72.4995 31.8005C72.4995 49.3635 58.2619 63.601 40.6989 63.601C23.136 63.601 8.89843 49.3635 8.89843 31.8005C8.89843 14.2376 23.136 3.26361e-06 40.6989 3.26361e-06C58.2619 3.26361e-06 72.4995 14.2376 72.4995 31.8005Z" fill="white"/>
<path d="M35.3984 20.6708L35.3984 16.4307L46.5286 16.4307L46.5286 20.6708L35.3984 20.6708Z" fill="white"/>
<path d="M20.5605 15.371H31.6907V48.7615H22.4156C21.3911 48.7615 20.5605 47.931 20.5605 46.9065V15.371Z" fill="#A8D0E5"/>
<path d="M20.5605 43.7692V47.9341C20.5605 48.3907 20.9307 48.7609 21.3874 48.7609H60.0144C60.471 48.7609 60.8412 48.3907 60.8412 47.9341V16.7272C60.8412 16.2706 60.471 15.9004 60.0144 15.9004H21.3874C20.9307 15.9004 20.5605 16.2706 20.5605 16.7272V23.2027" stroke="#36485C" stroke-width="1.28" stroke-linecap="round" stroke-linejoin="round"/>
<path d="M20.5605 34.4512V39.7513" stroke="#36485C" stroke-width="1.28" stroke-linecap="round" stroke-linejoin="round"/>
<path d="M20.5625 24.9707V30.2708" stroke="#36485C" stroke-width="1.28" stroke-linecap="round" stroke-linejoin="round"/>
<path d="M35.3984 15.9004V20.6705H46.5286V15.9004" stroke="#36485C" stroke-width="1.28" stroke-linecap="round" stroke-linejoin="round"/>
<g clip-path="url(#clip0_3104_73704)">
<path d="M57.1401 39.8682C57.1401 39.8682 57.1401 39.8839 57.1401 39.8996C57.1401 40.0252 56.9483 42.6635 53.6395 43.857V42.2081L55.6376 40.0724C55.8134 39.8839 55.8134 39.5855 55.6056 39.3971C55.4138 39.2243 55.1101 39.2243 54.9183 39.4285L53.6395 40.8104V39.3971C53.6395 39.3971 53.6395 39.3971 53.6395 39.3814C53.7994 39.0202 54.5666 37.6068 56.4528 37.6068C56.4688 37.6068 56.4848 37.6068 56.5007 37.6068C57.252 38.4863 57.1401 39.8525 57.1401 39.8682ZM52.6805 40.8104L51.3857 39.4285C51.2099 39.24 50.9062 39.2243 50.7144 39.3971C50.5226 39.5698 50.5066 39.8839 50.6824 40.0724L52.6805 42.2081V43.8413C49.3717 42.6478 49.1959 39.9938 49.1799 39.8839C49.1799 39.8682 49.1799 39.8682 49.1799 39.8525C49.1799 39.8368 49.052 38.4705 49.8033 37.5911C49.8193 37.5911 49.8353 37.5911 49.8672 37.5911C51.7694 37.5911 52.5206 39.0202 52.6805 39.3657C52.6805 39.3657 52.6805 39.3657 52.6805 39.3814V40.8104V40.8104ZM57.0762 36.7902C56.9963 36.7117 56.8844 36.6646 56.7725 36.6489C54.9662 36.539 53.7834 37.4498 53.16 38.2978C52.5366 37.4498 51.3698 36.539 49.5475 36.6489C49.4356 36.6489 49.3238 36.7117 49.2438 36.7902C48.077 37.9366 48.2049 39.7583 48.2208 39.931C48.2208 40.0566 48.3008 40.9518 48.8922 41.9882C49.4516 42.9776 50.6345 44.281 52.9842 44.9406C53.0002 44.9406 53.0161 44.9406 53.0161 44.9563C53.0321 44.9563 53.0321 44.9563 53.0481 44.9563C53.0641 44.9563 53.0641 44.9563 53.0801 44.9563C53.0961 44.9563 53.128 44.9563 53.144 44.9563C53.16 44.9563 53.192 44.9563 53.208 44.9563C53.2239 44.9563 53.2239 44.9563 53.2399 44.9563C53.2559 44.9563 53.2559 44.9563 53.2719 44.9563C53.2879 44.9563 53.3039 44.9563 53.3199 44.9406C57.6836 43.7314 58.0672 40.2765 58.0832 39.9467C58.0992 39.8525 58.259 37.968 57.0762 36.7902Z" fill="#36485C"/>
</g>
<path d="M2.53906 42H24.2694" stroke="#36485C" stroke-width="1.28" stroke-linecap="round" stroke-linejoin="round"/>
<path d="M1 28.6211H14.7304" stroke="#36485C" stroke-width="1.28" stroke-linecap="round" stroke-linejoin="round"/>
<path d="M11.5469 23.3799H25.3271" stroke="#36485C" stroke-width="1.28" stroke-linecap="round" stroke-linejoin="round"/>
<path d="M28.0155 32.0664H17.9453" stroke="#36485C" stroke-width="1.28" stroke-linecap="round" stroke-linejoin="round"/>
<path d="M15.2516 32.0664H12.6016" stroke="#36485C" stroke-width="1.28" stroke-linecap="round" stroke-linejoin="round"/>
<path d="M10.486 32.0664H7.83594" stroke="#36485C" stroke-width="1.28" stroke-linecap="round" stroke-linejoin="round"/>
<path d="M11.0144 37.1006H4.6543" stroke="#36485C" stroke-width="1.28" stroke-linecap="round" stroke-linejoin="round"/>
<defs>
<clipPath id="clip0_3104_73704">
<rect width="10.0702" height="8.48014" fill="white" transform="translate(48.125 36.5703)"/>
</clipPath>
</defs>
</svg>
