<svg width="64" height="64" viewBox="0 0 64 64" fill="none" xmlns="http://www.w3.org/2000/svg">
<circle cx="32" cy="32" r="32" fill="white"/>
<path d="M21.2754 35.5718C21.2754 30.8388 25.1123 27.002 29.8453 27.002H39.3647V49.226H21.2754V35.5718Z" fill="#3174A8"/>
<rect x="34.1992" y="27.002" width="5.16838" height="22.4825" fill="#A8D0E5"/>
<path d="M35.3103 22.5821V19.6433V19.6433C36.4612 19.6433 37.3942 18.7103 37.3942 17.5594V16.8617C37.3942 15.3254 36.1488 14.0801 34.6126 14.0801H21.0781C19.5418 14.0801 18.2965 15.3254 18.2965 16.8617V17.5594C18.2965 18.7103 19.2295 19.6433 20.3804 19.6433V19.6433V22.6255C19.2369 23.0496 18.2508 23.8123 17.5544 24.8114C16.858 25.8105 16.4846 26.9981 16.4844 28.2149V46.5565C16.4844 48.1342 17.7633 49.4132 19.341 49.4132H36.4756C38.0533 49.4132 39.3323 48.1342 39.3323 46.5565V28.2176C39.3322 26.9779 38.9449 25.7689 38.224 24.7589C37.5032 23.7489 36.4848 22.9881 35.3103 22.5821Z" stroke="#36485C" stroke-width="1.28" stroke-linecap="round" stroke-linejoin="round"/>
<path d="M35.3304 19.6295L20.623 19.6295" stroke="#36485C" stroke-width="1.28" stroke-linecap="round" stroke-linejoin="round"/>
<circle cx="44.5" cy="43.5" r="6.86003" fill="white" stroke="#36485C" stroke-width="1.28"/>
<path d="M40.9297 43.3879L43.4114 45.644L47.9235 41.3574" stroke="#36485C" stroke-width="1.28" stroke-linecap="round"/>
</svg>
