<svg width="60" height="50" viewBox="0 0 60 50" fill="none" xmlns="http://www.w3.org/2000/svg">
<path fill-rule="evenodd" clip-rule="evenodd" d="M12.8684 25.1566C12.9649 24.4968 13.0974 23.8301 13.2659 23.1566C14.3825 18.6925 17.0782 13.9295 21.3531 8.86784C21.7761 8.36703 22.2145 7.8633 22.6684 7.35665L13.8684 0.556641C8.93503 5.48997 5.40169 10.5566 3.26836 15.7566C1.13503 20.9566 0.0683594 26.69 0.0683594 32.9566V49.1566H24.0684V25.1566H12.8684ZM22.0684 27.1566H10.5544L10.8894 24.867C11.6968 19.3498 14.7479 13.605 19.7691 7.64383L14.0574 3.23023C9.91442 7.6105 6.95427 12.0415 5.1187 16.5158C3.09494 21.4487 2.06836 26.9204 2.06836 32.9566V47.1566H22.0684V27.1566ZM48.6684 25.1566C48.7649 24.4968 48.8974 23.8301 49.0659 23.1566C50.1824 18.6925 52.8782 13.9295 57.1531 8.86784C57.5761 8.36703 58.0145 7.8633 58.4684 7.35665L49.6684 0.556641C44.735 5.48997 41.2017 10.5566 39.0684 15.7566C36.935 20.9566 35.8684 26.69 35.8684 32.9566V49.1566H59.8684V25.1566H48.6684ZM57.8684 27.1566H46.3544L46.6894 24.867C47.4968 19.3498 50.5479 13.605 55.5691 7.64383L49.8574 3.23023C45.7144 7.6105 42.7543 12.0415 40.9187 16.5158C38.8949 21.4487 37.8684 26.9204 37.8684 32.9566V47.1566H57.8684V27.1566Z" fill="#ffffff"/>
</svg>
